<?xml version="1.0" encoding="UTF-8"?>
<svg version="1.1" viewBox="0 0 5850 964" xmlns="http://www.w3.org/2000/svg">
    <g>
        <path fill="#fff" d="M2360 355c3,-16 1,-30 -8,-42 -9,-12 -21,-18 -37,-18l-61 0c-8,0 -16,1 -25,4 -8,4 -16,8 -23,14 -7,5 -14,11 -19,19 -5,7 -9,15 -10,23l-33 122c-2,8 -2,16 -1,23 2,8 4,14 8,20 4,6 9,10 16,14 6,3 13,5 21,5l61 0c16,0 32,-6 48,-19 15,-13 25,-27 29,-43l34 -122zm-1494 260l0 0 66 -244c4,-16 2,-31 -7,-43 -9,-12 -22,-18 -38,-18l-122 0 -82 305 -182 0 98 -366 427 0c7,0 15,0 21,2 83,-148 268,-251 482,-251 72,0 141,12 204,33 -49,-13 -102,-20 -157,-20 -260,0 -471,161 -471,360 0,199 211,360 471,360 261,0 472,-161 472,-360 0,-30 -5,-58 -14,-85 6,-6 12,-12 19,-17 32,-25 64,-38 96,-38l305 0c31,0 56,13 74,38 18,25 23,53 15,85l-33 121c-9,32 -28,61 -60,86 -31,24 -63,37 -94,37l-306 0c-13,0 -24,-2 -35,-6 -80,153 -268,260 -486,260 -211,0 -393,-100 -478,-245l-1 6 -184 0z"/>
        <path fill="#fff" d="M94 615c-33,0 -58,-12 -76,-37 -18,-24 -22,-53 -14,-85l66 -245c8,-31 28,-59 59,-84 31,-24 63,-37 95,-37l366 0 -16 61 -244 0c-8,0 -16,2 -24,5 -8,4 -16,8 -24,14 -7,5 -13,12 -19,19 -5,8 -9,15 -11,22l-24 93 244 0 -16 60 -245 0 -24 92c-2,8 -2,15 0,23 1,7 4,14 8,19 4,6 9,11 15,14 6,4 13,5 21,5l244 0 -16 61 -365 0z"/>
        <path fill="#fff" d="M3198 600l66 -245c3,-16 1,-30 -8,-42 -9,-12 -21,-18 -37,-18l-31 0c-15,0 -31,6 -47,18 -16,12 -26,26 -29,42l-66 245 -183 0 66 -245c4,-16 1,-30 -8,-42 -9,-12 -22,-18 -38,-18l-30 0c-8,0 -16,1 -24,4 -9,4 -17,8 -24,14 -7,5 -13,11 -19,19 -5,7 -9,15 -10,23l-66 245 -183 0 66 -244c9,-33 29,-61 59,-85 32,-25 64,-38 96,-38l609 0c31,0 56,13 75,38 18,25 23,53 15,85l-66 244 -183 0z"/>
        <path fill="#fff" d="M3866 355c4,-16 2,-30 -7,-42 -9,-12 -21,-18 -37,-18l-123 0 -65 244 122 0c16,0 32,-6 47,-19 16,-13 26,-27 30,-43l33 -122zm151 122l0 0c-9,32 -29,61 -60,86 -32,24 -64,37 -95,37l-244 0 -33 121 -182 0 130 -488 427 0c31,0 56,13 74,38 19,25 24,53 16,85l-33 121z"/>
        <path fill="#fff" d="M4422 417l-122 0c-8,0 -16,1 -24,5 -8,3 -15,8 -22,13 -7,6 -14,12 -19,20 -5,7 -9,15 -12,22 -1,8 -2,16 0,23 1,8 4,14 8,20 4,6 9,10 15,14 7,3 14,5 22,5l61 0c16,0 32,-6 48,-19 16,-13 25,-27 29,-43l16 -60zm168 60l0 0c-9,32 -29,61 -60,86 -31,24 -63,37 -95,37l-305 0c-33,0 -58,-13 -75,-37 -19,-24 -23,-53 -14,-86 8,-31 28,-60 59,-84 32,-25 64,-38 96,-38l244 0c1,-8 0,-16 -1,-23 -2,-7 -4,-14 -8,-19 -4,-6 -9,-10 -15,-14 -6,-3 -13,-4 -21,-4l-244 0 16 -62 366 0c32,0 56,13 74,38 19,25 24,53 16,84l-33 122z"/>
        <path fill="#fff" d="M5178 508c-9,31 -29,54 -60,71 -25,14 -54,21 -87,21l-427 0 17 -61 335 0c8,0 16,-3 24,-10 7,-6 12,-13 14,-21 5,-15 -23,-29 -83,-41 -86,-16 -142,-29 -166,-40 -57,-24 -79,-58 -67,-101 9,-32 28,-56 58,-71 25,-15 55,-22 89,-22l426 0 -16 62 -335 0c-9,0 -17,3 -24,9 -8,6 -13,13 -15,21 -5,15 23,29 83,41 43,8 79,16 106,22 27,7 47,13 60,18 56,24 79,58 68,102z"/>
        <path fill="#fff" d="M5777 508c-9,31 -29,54 -60,71 -25,14 -55,21 -87,21l-427 0 16 -61 335 0c8,0 16,-3 24,-10 8,-6 13,-13 15,-21 4,-15 -24,-29 -84,-41 -86,-16 -141,-29 -165,-40 -57,-24 -80,-58 -68,-101 9,-32 28,-56 58,-71 26,-15 55,-22 89,-22l427 0 -16 62 -336 0c-8,0 -16,3 -24,9 -8,6 -13,13 -15,21 -4,15 24,29 84,41 43,8 78,16 106,22 27,7 47,13 59,18 57,24 80,58 69,102z"/>
        <polygon fill="#fff" points="1752,110 1530,314 1402,589 1629,378 "/>
    </g>
</svg>
